HIERARCHY
ROOT ui
{
	 OFFSET 0 0 0
	 CHANNELS 3 XPosition YPosition Z Position
	 EndSite
	 {
	 OFFSET 0 -1 0
	 }
}
ROOT li
{
	 OFFSET 0 0 0
	 CHANNELS 3 XPosition YPosition Z Position
	 EndSite
	 {
	 OFFSET 0 -1 0
	 }
}
ROOT ul
{
	 OFFSET 0 0 0
	 CHANNELS 3 XPosition YPosition Z Position
	 EndSite
	 {
	 OFFSET 0 -1 0
	 }
}
ROOT ll
{
	 OFFSET 0 0 0
	 CHANNELS 3 XPosition YPosition Z Position
	 EndSite
	 {
	 OFFSET 0 -1 0
	 }
}
ROOT tt
{
	 OFFSET 0 0 0
	 CHANNELS 3 XPosition YPosition Z Position
	 EndSite
	 {
	 OFFSET 0 -1 0
	 }
}
ROOT tb
{
	 OFFSET 0 0 0
	 CHANNELS 3 XPosition YPosition Z Position
	 EndSite
	 {
	 OFFSET 0 -1 0
	 }
}
ROOT td
{
	 OFFSET 0 0 0
	 CHANNELS 3 XPosition YPosition Z Position
	 EndSite
	 {
	 OFFSET 0 -1 0
	 }
}
ROOT v
{
	 OFFSET 0 0 0
	 CHANNELS 3 XPosition YPosition Z Position
	 EndSite
	 {
	 OFFSET 0 -1 0
	 }
}
ROOT bn
{
	 OFFSET 0 0 0
	 CHANNELS 3 XPosition YPosition Z Position
	 EndSite
	 {
	 OFFSET 0 -1 0
	 }
}
MOTION
Frames: 32
Frame Time: 0.002
-0.01941744804382324	0.0014447710514068604	0		0.5530753784179687	-2.3748583984375	0		-1.1411763916015625	-0.05260934829711914	0		-0.5881072387695313	-2.62368603515625	0		2.160541748046875	-1.0607470703125	0		3.541519287109375	-0.8299028930664063	0		4.6556044921875	-0.5887388916015625	0		6.02319921875	0.5763439331054687	0		-0.2618297119140625	5.83991064453125	0		
-0.023075687408447267	-0.0015658780336380005	0		0.5675723266601562	-2.372072998046875	0		-1.1568194580078126	-0.054510047912597656	0		-0.55572705078125	-2.63116259765625	0		2.141814453125	-0.9914894409179688	0		3.508053466796875	-0.8194193725585938	0		4.6358564453125	-0.6003887939453125	0		6.0133603515625	0.56061767578125	0		-0.24467906188964844	5.83763134765625	0		
-0.02057903289794922	0.0012684919834136962	0		0.5421819458007813	-2.36687109375	0		-1.1504200439453125	-0.059765697479248044	0		-0.5561718139648437	-2.63131005859375	0		2.12720166015625	-0.9193591918945313	0		3.509728271484375	-0.8044453125	0		4.63226416015625	-0.606310302734375	0		6.0127998046875	0.5607085571289062	0		-0.328697021484375	5.81652294921875	0		
0.04889036560058594	-0.006804149150848388	0		0.5708299560546874	-2.367417724609375	0		-1.1618436279296875	-0.05888299560546875	0		-0.5565115966796875	-2.63154052734375	0		2.122635986328125	-0.8514320678710937	0		3.50647998046875	-0.791486572265625	0		4.619861328125	-0.6051974487304688	0		6.0082412109375	0.5527755126953126	0		-0.29528369140625	5.82188134765625	0		
-0.02437094497680664	-0.0021985321044921875	0		0.5217322387695312	-2.357087158203125	0		-1.2310540771484375	-0.050373851776123045	0		-0.5547012329101563	-2.6298798828125	0		2.12528662109375	-0.7756729736328125	0		3.491552001953125	-0.7624613037109375	0		4.6295185546875	-0.6094336547851562	0		6.02098876953125	0.5595555419921875	0		-0.3006413269042969	5.83663720703125	0		
0.05547319793701172	-0.0015569169521331787	0		0.5618818969726562	-2.33893505859375	0		-1.1532322998046876	-0.05175591278076172	0		-0.5985711059570312	-2.613741943359375	0		2.120111328125	-0.696897705078125	0		3.478494873046875	-0.7555402221679688	0		4.63140478515625	-0.606650390625	0		6.0207919921875	0.5594192504882812	0		-0.23390751647949218	5.84742626953125	0		
-0.021525938034057616	-7.655400037765503E-5	0		0.5090264892578125	-2.33372705078125	0		-1.1582957763671875	-0.05620407104492187	0		-0.564543701171875	-2.61964306640625	0		2.122013916015625	-0.6242894897460938	0		3.46791259765625	-0.722726318359375	0		4.62224267578125	-0.6208097534179687	0		6.01686181640625	0.5682545776367187	0		-0.28235821533203126	5.8315419921875	0		
0.05257166290283203	-0.005523158073425293	0		0.5622130737304688	-2.339895263671875	0		-1.189981201171875	-0.0434110107421875	0		-0.5663043823242188	-2.6221884765625	0		2.12203173828125	-0.5557376708984375	0		3.455193359375	-0.7149666137695313	0		4.6224208984375	-0.6211583251953126	0		6.00779541015625	0.552076171875	0		-0.28344308471679686	5.83199609375	0		
-0.024082124710083006	-0.004216502189636231	0		0.4939399719238281	-2.3156650390625	0		-1.177773193359375	-0.05423683547973633	0		-0.5767632446289063	-2.61470947265625	0		2.13218359375	-0.4903872985839844	0		3.432809326171875	-0.69416650390625	0		4.5997900390625	-0.6203055419921875	0		6.0090869140625	0.5506990966796875	0		-0.2833709716796875	5.83135498046875	0		
0.05340882873535156	-0.006857348918914795	0		0.5334774169921875	-2.3228232421875	0		-1.189140625	-0.04485574340820313	0		-0.634108642578125	-2.612745361328125	0		2.106537353515625	-0.42268017578125	0		3.439457275390625	-0.6857949829101563	0		4.59521826171875	-0.6297472534179688	0		6.01756982421875	0.5501632080078125	0		-0.28213739013671874	5.8296201171875	0		
-0.019848602294921875	-0.002753087043762207	0		0.5075158386230468	-2.303263427734375	0		-1.164439453125	-0.0449874267578125	0		-0.567219970703125	-2.60735693359375	0		2.143012939453125	-0.3597967834472656	0		3.42977978515625	-0.6362958374023437	0		4.58702099609375	-0.6232157592773437	0		6.01842578125	0.5656513671875	0		-0.26857394409179686	5.84066162109375	0		
0.057999191284179685	-0.005538380146026612	0		0.5255599975585937	-2.298305419921875	0		-1.1794991455078125	-0.03971268081665039	0		-0.6629736328125	-2.586084716796875	0		2.117579833984375	-0.3032384033203125	0		3.413628173828125	-0.6407923583984375	0		4.5968310546875	-0.6309691772460938	0		6.02316845703125	0.5570252075195312	0		-0.284078125	5.8319794921875	0		
-0.020985492706298826	-0.0075106201171875	0		0.5267030029296875	-2.299210205078125	0		-1.1865469970703124	-0.04760295486450195	0		-0.5909174194335938	-2.59589306640625	0		2.102843505859375	-0.28587750244140625	0		3.40102734375	-0.6133941650390625	0		4.57390771484375	-0.6303932495117187	0		6.012283203125	0.5655255126953125	0		-0.29745370483398437	5.8202041015625	0		
0.05718584823608398	-0.010417849540710448	0		0.5010280456542969	-2.29785498046875	0		-1.1772738037109376	-0.04174691009521484	0		-0.6625391235351562	-2.59104541015625	0		2.103212158203125	-0.27275604248046875	0		3.410327880859375	-0.6073164672851562	0		4.56721044921875	-0.6240686645507812	0		6.0091474609375	0.539874267578125	0		-0.28439291381835935	5.83205517578125	0		
-0.025316158294677735	0.0035348460674285887	0		0.499655517578125	-2.28283984375	0		-1.17191064453125	-0.039895305633544924	0		-0.620066162109375	-2.5906064453125	0		2.07947021484375	-0.28040060424804686	0		3.3840166015625	-0.5798642578125	0		4.544580078125	-0.6236055908203125	0		6.01063623046875	0.5551224975585938	0		-0.26822207641601564	5.8418193359375	0		
0.057143268585205076	0.0034926600456237794	0		0.5032324523925781	-2.2819248046875	0		-1.166420166015625	-0.03708608627319336	0		-0.6473659057617187	-2.5803818359375	0		2.094818603515625	-0.290549072265625	0		3.400367919921875	-0.5909605102539063	0		4.5700390625	-0.625751708984375	0		6.01615625	0.5632832641601563	0		-0.28415975952148437	5.83292138671875	0		
-0.022343263626098633	0.0013282569646835328	0		0.49597052001953124	-2.274913330078125	0		-1.16488671875	-0.03826157760620117	0		-0.622662353515625	-2.577802001953125	0		2.093317626953125	-0.2955290222167969	0		3.394163818359375	-0.5718193359375	0		4.54454443359375	-0.6313283081054688	0		6.02155419921875	0.5534139404296875	0		-0.2839026794433594	5.83280078125	0		
-0.020750768661499025	1.8627899885177612E-4	0		0.4887685546875	-2.26792529296875	0		-1.1632923583984376	-0.03945947265625	0		-0.6569060668945312	-2.575552734375	0		2.11492333984375	-0.2968012390136719	0		3.397632080078125	-0.5858165893554688	0		4.5581669921875	-0.6323870849609375	0		6.01902685546875	0.5446150512695312	0		-0.2835721435546875	5.8336572265625	0		
-0.019125530242919922	-9.689790010452271E-4	0		0.5263851928710938	-2.27947412109375	0		-1.1616651611328126	-0.04067027282714844	0		-0.6612366943359375	-2.58366845703125	0		2.080576904296875	-0.29643365478515626	0		3.37939208984375	-0.5775734252929687	0		4.56649658203125	-0.6613993530273438	0		6.00871923828125	0.551892578125	0		-0.30315921020507813	5.8387333984375	0		
-0.017491968154907226	-0.0021283059120178224	0		0.5052111511230468	-2.273341064453125	0		-1.263883544921875	-0.028679664611816407	0		-0.6554326782226563	-2.580905517578125	0		2.084236328125	-0.29651513671875	0		3.398982421875	-0.5847774047851563	0		4.57404541015625	-0.67240673828125	0		6.02241845703125	0.5588838500976563	0		-0.266751220703125	5.842154296875	0		
-0.0017207549810409545	0.009555033683776856	0		0.50411474609375	-2.259436767578125	0		-1.219228515625	-0.027389846801757812	0		-0.6516533203125	-2.57911328125	0		2.07397705078125	-0.2884312438964844	0		3.408047607421875	-0.5498521118164063	0		4.572873046875	-0.6583086547851562	0		6.024013671875	0.5580172729492188	0		-0.2663958435058594	5.842	0		
-0.0072073211669921875	0.001496567964553833	0		0.5037919006347656	-2.262529296875	0		-1.233563232421875	-0.022402854919433595	0		-0.6200552978515625	-2.59062744140625	0		2.09357177734375	-0.29068011474609373	0		3.39754150390625	-0.5616926879882812	0		4.59134716796875	-0.6724278564453126	0		6.00958251953125	0.5573448486328125	0		-0.24810040283203125	5.83865283203125	0		
-0.005655866146087646	3.7889501452445984E-4	0		0.530388671875	-2.268909423828125	0		-1.1540157470703125	-0.024470327377319336	0		-0.6672667846679687	-2.581212890625	0		2.0771494140625	-0.2904949951171875	0		3.4003134765625	-0.5456661987304687	0		4.58580419921875	-0.6842529907226562	0		6.0111083984375	0.5565040893554688	0		-0.2959976806640625	5.8220859375	0		
-0.017090131759643554	0.005438433170318603	0		0.5050224914550782	-2.266666015625	0		-1.1525181884765625	-0.025610029220581056	0		-0.5988076171875	-2.59609423828125	0		2.07865869140625	-0.29149029541015625	0		3.427843994140625	-0.5458990478515625	0		4.593216796875	-0.6952039794921875	0		6.01648828125	0.5476394653320312	0		-0.2806253967285156	5.83282421875	0		
-0.005762424945831299	-0.004727628231048584	0		0.5085732727050781	-2.265719482421875	0		-1.2250360107421876	-0.021870954513549805	0		-0.6552388305664063	-2.59451318359375	0		2.09023779296875	-0.2805677490234375	0		3.432661865234375	-0.51484033203125	0		4.6018134765625	-0.684139404296875	0		6.021986328125	0.5547994995117187	0		-0.29938677978515627	5.83698681640625	0		
-0.007223508834838867	0.010294947624206543	0		0.5161019287109375	-2.259777099609375	0		-1.1416490478515624	-0.020859914779663084	0		-0.59174560546875	-2.59325244140625	0		2.0946630859375	-0.27652688598632813	0		3.4450849609375	-0.511835205078125	0		4.60726611328125	-0.6790073852539062	0		6.0153212890625	0.554125732421875	0		-0.2783255615234375	5.83073828125	0		
-0.009979368209838867	0.0063775739669799806	0		0.5045129699707032	-2.2565732421875	0		-1.2223988037109375	-0.023940587997436525	0		-0.6673515625	-2.59236865234375	0		2.095951904296875	-0.2774087524414062	0		3.4745615234375	-0.496982177734375	0		4.61060400390625	-0.6768153686523437	0		6.016578125	0.5533946533203125	0		-0.27826034545898437	5.8307763671875	0		
0.004147241115570069	-6.78941011428833E-4	0		0.5146873779296876	-2.266566162109375	0		-1.149162353515625	-0.021705055236816408	0		-0.5951577758789063	-2.60210107421875	0		2.094100830078125	-0.2832096862792969	0		3.460820556640625	-0.4935991516113281	0		4.6297099609375	-0.687761962890625	0		6.02184326171875	0.5606549682617188	0		-0.25832080078125	5.825642578125	0		
-0.014752842903137208	-0.0023091731071472167	0		0.506973876953125	-2.258303466796875	0		-1.22413671875	-0.02974490737915039	0		-0.668912109375	-2.598134521484375	0		2.098276123046875	-0.2790290222167969	0		3.462137451171875	-0.47734030151367185	0		4.6308427734375	-0.6884632568359375	0		6.0268447265625	0.5519554443359375	0		-0.31140066528320315	5.82538525390625	0		
-0.0026180651187896727	0.006770319938659668	0		0.5169642944335937	-2.2681845703125	0		-1.2190677490234374	-0.026623233795166016	0		-0.6548780517578126	-2.60509619140625	0		2.099106689453125	-0.29776092529296877	0		3.479252685546875	-0.47121160888671876	0		4.6329091796875	-0.6871311645507813	0		6.01985205078125	0.5514304809570313	0		-0.3085754699707031	5.82255712890625	0		
0.011251432418823242	-1.0980299860239029E-4	0		0.5240523071289063	-2.260973388671875	0		-1.220029052734375	-0.018369951248168946	0		-0.6627576904296875	-2.59574951171875	0		2.110196533203125	-0.2855516357421875	0		3.5156025390625	-0.4362452392578125	0		4.65503125	-0.6729758911132813	0		6.03386279296875	0.558713134765625	0		-0.25960952758789063	5.8382763671875	0		
-8.289009928703308E-4	0.005362621784210205	0		0.5409916381835937	-2.258811279296875	0		-1.1511807861328125	-0.019829023361206056	0		-0.6038573608398438	-2.598083740234375	0		2.103955810546875	-0.29509414672851564	0		3.480400390625	-0.442430908203125	0		4.64900048828125	-0.664457763671875	0		6.02961279296875	0.5502435302734375	0		-0.2550664520263672	5.82255419921875	0		
